<?xml version="1.0" encoding="UTF-8" standalone="no"?>
<!DOCTYPE svg PUBLIC "-//W3C//DTD SVG 1.1//EN" "http://www.w3.org/Graphics/SVG/1.1/DTD/svg11.dtd">
<svg version="1.1" xmlns="http://www.w3.org/2000/svg" xmlns:xlink="http://www.w3.org/1999/xlink" preserveAspectRatio="xMidYMid meet" viewBox="273.1835878925318 238.8674206298538 55.22999999999996 99.99999999999997" width="51.23" height="96"><defs><path d="M311.67 239.87L291.34 239.91L291.35 251.77L290.26 249.96L274.18 261.53L279.93 270.78L284.43 267.98L281.3 262.95L288.7 257.63L303.43 282.08L296.72 293.69L296.71 287.75L292.8 281.46L288.3 284.26L291.41 289.27L291.44 303.56L291.51 335.87L311.86 335.83L311.78 304.23L325.41 279.59L313.66 274.92L325.41 254.55L311.69 249.09L311.67 239.87ZM296.81 330.56L296.79 320.83L306.53 320.81L306.55 330.55L296.81 330.56ZM306.51 315.5L296.77 315.52L296.75 304.27L310.99 279.58L317.86 282.31L306.48 302.87L306.51 315.5ZM301.38 268.42L310.13 254.18L317.77 257.22L306.45 276.84L301.38 268.42ZM298.31 263.31L296.67 260.59L296.64 245.19L306.38 245.17L306.39 250.14L298.31 263.31Z" id="bcMYLP1Dc"></path></defs><g><g><use xlink:href="#bcMYLP1Dc" opacity="1" fill="#ffffff" fill-opacity="1"></use><g><use xlink:href="#bcMYLP1Dc" opacity="1" fill-opacity="0" stroke="#000000" stroke-width="1" stroke-opacity="0"></use></g></g></g></svg>